<svg height="512" viewBox="0 0 512 512" width="512" xmlns="http://www.w3.org/2000/svg"><path d="m.5.5h511v511h-511z" fill="#040c10"/><path d="m511 1v510h-510v-510zm1-1h-512v512h512z"/><g fill="#fff"><path d="m151.26 369q-19.87 0-34.77-4.39t-23.14-15.79q-8.23-11.34-8.23-31.82l1.14-24.7q0-9.93-2.28-14.9t-6.24-6.53a27.39 27.39 0 0 0 -9.94-1.56h-10.5v-28.1h10.22a25.49 25.49 0 0 0 10.79-2 12.93 12.93 0 0 0 6.38-6.67q2.13-4.68 2.13-13.2l-.56-25.54q0-16.76 7.09-28a44.63 44.63 0 0 1 20.16-17q13-5.82 30.94-5.82h21.85v28.38h-27q-9.66 0-14.62 5t-5 14.62l.57 25a52.1 52.1 0 0 1 -2.41 16.18 40.67 40.67 0 0 1 -18.6 23 33.87 33.87 0 0 1 10.79 9.37 46.25 46.25 0 0 1 7.1 13.9 58.52 58.52 0 0 1 2.55 17.89l-.5 20.68q0 8.52 3 14.05a17.05 17.05 0 0 0 9.23 7.95q6.24 2.42 15.89 2.41h18.7v27.59z"/><path d="m302.55 350-13.62-19.42a64.1 64.1 0 0 1 -12.21 10 56.78 56.78 0 0 1 -14.19 6.33 57.5 57.5 0 0 1 -16.18 2.24q-15 0-25.83-6a42.19 42.19 0 0 1 -16.61-16.45 47 47 0 0 1 -5.82-23.34 66.51 66.51 0 0 1 1.85-15.75 60 60 0 0 1 5.68-14.62 60.75 60.75 0 0 1 9.65-13.08 74.45 74.45 0 0 1 13.73-11.2 79.2 79.2 0 0 1 -12.74-20.71 56.82 56.82 0 0 1 -4-21.23 33.89 33.89 0 0 1 3.54-15.46 38.21 38.21 0 0 1 9.8-12.24 48.12 48.12 0 0 1 14.22-8.07 46.09 46.09 0 0 1 16.18-3q12.48 0 21.57 5.48a38.69 38.69 0 0 1 14.05 14.34 38.22 38.22 0 0 1 5 19 59.23 59.23 0 0 1 -2 15.89 49.66 49.66 0 0 1 -5.67 13.08 63.53 63.53 0 0 1 -8.52 10.83 123.32 123.32 0 0 1 -10.78 9.7l23.27 32.05c1.14-1.51 2.27-3.16 3.41-5s2.22-3.64 3.26-5.54a38 38 0 0 0 2.56-5.68 16.37 16.37 0 0 0 1-5.39 13.85 13.85 0 0 1 .28-3 7.6 7.6 0 0 1 1.71-3l24.13 17q-2.85 6.54-6 12.17t-6.27 10.52q-3.13 4.79-6.53 9l14.53 19.55zm-53.36-28.39a25.15 25.15 0 0 0 8.23-1.37 30.87 30.87 0 0 0 7.81-4.13 51.64 51.64 0 0 0 7.23-6.34l-26.68-37.68a72.32 72.32 0 0 0 -6.67 6.3 31.26 31.26 0 0 0 -4.82 6.71 28.92 28.92 0 0 0 -2.7 7.42 37.88 37.88 0 0 0 -.85 8.11 31 31 0 0 0 1.13 8.67 17.67 17.67 0 0 0 3.55 6.72 15.25 15.25 0 0 0 5.82 4.19 20.87 20.87 0 0 0 7.95 1.36zm3.69-87.76a35.78 35.78 0 0 0 6.53-5 30.47 30.47 0 0 0 4.82-6.15 28.13 28.13 0 0 0 4-14.53 16.74 16.74 0 0 0 -2.84-9.36q-2.85-4.34-9.09-4.34a13.62 13.62 0 0 0 -7.52 2.1 13 13 0 0 0 -4.82 5.31 13.67 13.67 0 0 0 -1.56 6 31.43 31.43 0 0 0 1.13 8 43.48 43.48 0 0 0 3.41 8.81 57.84 57.84 0 0 0 5.94 9.12z"/><path d="m360.74 369h-14.74v-27.56h18.74q9.93 0 16-2.41a17.11 17.11 0 0 0 9.09-7.95q3-5.54 3-14.05l-.57-20.72a58.2 58.2 0 0 1 2.56-17.89 45.78 45.78 0 0 1 7.09-13.9 33.77 33.77 0 0 1 10.79-9.37 40.6 40.6 0 0 1 -18.59-23 51.8 51.8 0 0 1 -2.43-16.15l.57-25q0-9.65-4.83-14.62t-14.76-5h-27v-28.38h21.86q17.88 0 30.93 5.82a44.63 44.63 0 0 1 20.16 17q7.1 11.2 7.09 28l-.56 25.54q0 8.52 2.13 13.2a12.84 12.84 0 0 0 6.52 6.67 25.73 25.73 0 0 0 10.65 2h10.26v28.1h-10.5a27.64 27.64 0 0 0 -9.8 1.56q-4.11 1.58-6.38 6.53t-2.28 14.9l1.14 24.7q0 20.43-8.23 31.79t-23.14 15.76q-14.89 4.43-34.77 4.43z"/></g></svg>